<svg xmlns="http://www.w3.org/2000/svg"  viewBox="0 0 80 80" width="480px" height="480px"><path fill="#8cd3df" d="M8.685,42.593c-2.629,0-4.976-1.669-5.839-4.153c-0.543-1.56-0.445-3.237,0.273-4.724 c0.72-1.486,1.975-2.604,3.534-3.146l54.609-18.991c0.658-0.229,1.342-0.345,2.031-0.345c2.629,0,4.976,1.669,5.839,4.153 c0.543,1.56,0.445,3.237-0.273,4.724c-0.72,1.486-1.975,2.604-3.534,3.146L10.716,42.248C10.058,42.477,9.374,42.593,8.685,42.593z"/><path fill="#5f9099" d="M63.295,11.733L63.295,11.733c2.416,0,4.572,1.534,5.366,3.818c1.029,2.96-0.541,6.205-3.501,7.234 L10.551,41.776c-0.605,0.21-1.233,0.317-1.867,0.317c-2.416,0-4.573-1.534-5.367-3.818c-1.029-2.96,0.541-6.205,3.501-7.234 L61.427,12.05C62.032,11.839,62.66,11.733,63.295,11.733 M63.294,10.733c-0.728,0-1.469,0.12-2.195,0.373L6.489,30.097 c-3.486,1.212-5.329,5.021-4.117,8.507v0c0.96,2.76,3.546,4.489,6.312,4.489c0.728,0,1.469-0.12,2.195-0.373l54.609-18.991 c3.486-1.212,5.329-5.021,4.117-8.507C68.646,12.462,66.06,10.732,63.294,10.733L63.294,10.733z"/><path fill="#dd215a" d="M16.706,68.767c-2.629,0-4.976-1.669-5.839-4.153c-0.543-1.56-0.445-3.237,0.273-4.724 c0.72-1.486,1.975-2.604,3.534-3.146l54.609-18.991c0.658-0.229,1.342-0.345,2.031-0.345c2.629,0,4.976,1.669,5.839,4.153 c0.543,1.56,0.445,3.237-0.273,4.724c-0.72,1.486-1.975,2.604-3.534,3.146L18.737,68.422 C18.079,68.651,17.396,68.767,16.706,68.767z"/><path fill="#a81945" d="M71.316,37.907L71.316,37.907c2.416,0,4.572,1.534,5.366,3.818c1.029,2.96-0.541,6.205-3.501,7.234 L18.573,67.95c-0.605,0.21-1.233,0.317-1.867,0.317c-2.416,0-4.573-1.534-5.367-3.818c-1.029-2.96,0.541-6.205,3.501-7.234 l54.609-18.991C70.054,38.014,70.682,37.907,71.316,37.907 M71.316,36.907c-0.728,0-1.469,0.12-2.195,0.373L14.511,56.271 c-3.486,1.212-5.329,5.021-4.117,8.507c0.96,2.76,3.546,4.489,6.312,4.489c0.728,0,1.469-0.12,2.195-0.373l54.609-18.991 c3.486-1.212,5.329-5.021,4.117-8.507v0C76.668,38.637,74.081,36.907,71.316,36.907L71.316,36.907z"/><path fill="#ebb23d" d="M62.583,69.478c-2.629,0-4.976-1.669-5.839-4.153L37.752,10.715c-1.12-3.22,0.589-6.751,3.809-7.871 C42.219,2.616,42.902,2.5,43.592,2.5c2.629,0,4.976,1.669,5.839,4.153l18.991,54.609c0.543,1.56,0.445,3.238-0.273,4.724 c-0.72,1.487-1.975,2.604-3.534,3.146C63.956,69.362,63.272,69.478,62.583,69.478z"/><path fill="#b58a2f" d="M43.592,3L43.592,3c2.416,0,4.572,1.534,5.366,3.818L67.95,61.427 c1.029,2.96-0.541,6.205-3.501,7.234c-0.605,0.21-1.233,0.317-1.867,0.317c-2.416,0-4.573-1.534-5.367-3.818L38.224,10.551 c-1.029-2.96,0.541-6.205,3.501-7.234C42.33,3.107,42.958,3,43.592,3 M43.592,2c-0.728,0-1.469,0.12-2.195,0.373 c-3.486,1.212-5.329,5.021-4.117,8.507l18.991,54.609c0.96,2.76,3.546,4.489,6.312,4.489c0.728,0,1.469-0.12,2.195-0.373h0 c3.486-1.212,5.329-5.021,4.117-8.507L49.903,6.489C48.944,3.73,46.358,2,43.592,2L43.592,2z"/><path fill="#cd171d" d="M51.23 42.23H63.595V54.595H51.23z" transform="rotate(-19.178 57.402 48.407)"/><path fill="#9c1116" d="M60.913,41.179l3.733,10.735l-10.735,3.733l-3.733-10.735L60.913,41.179 M61.529,39.906 l-12.624,4.39l4.39,12.624l12.624-4.39L61.529,39.906L61.529,39.906z"/><g><path fill="#7f9331" d="M42.244 16.391H54.609V28.756H42.244z" transform="rotate(-19.178 48.422 22.573)"/><path fill="#657527" d="M51.927,15.34l3.733,10.735l-10.735,3.733l-3.733-10.735L51.927,15.34 M52.543,14.067l-12.624,4.39 l4.39,12.624l12.624-4.39L52.543,14.067L52.543,14.067z"/></g><g><path fill="#66c1a0" d="M36.408,77.5c-2.629,0-4.976-1.669-5.839-4.153L11.578,18.737c-0.543-1.56-0.445-3.238,0.273-4.724 c0.72-1.487,1.975-2.604,3.534-3.146c0.658-0.229,1.342-0.345,2.031-0.345c2.629,0,4.976,1.669,5.839,4.153l18.992,54.609 c1.12,3.22-0.589,6.751-3.809,7.871C37.781,77.384,37.098,77.5,36.408,77.5z"/><path fill="#4e917a" d="M17.418,11.022L17.418,11.022c2.416,0,4.572,1.534,5.366,3.818l18.991,54.609 c1.029,2.96-0.541,6.205-3.501,7.234C37.67,76.893,37.042,77,36.408,77c-2.416,0-4.573-1.534-5.367-3.818L12.05,18.573 c-1.029-2.96,0.541-6.205,3.501-7.234C16.155,11.129,16.784,11.022,17.418,11.022 M17.417,10.022c-0.728,0-1.469,0.12-2.195,0.373 h0c-3.486,1.212-5.329,5.021-4.117,8.507l18.991,54.609C31.056,76.27,33.642,78,36.408,78c0.728,0,1.469-0.12,2.195-0.373 c3.486-1.212,5.329-5.021,4.117-8.507L23.729,14.511C22.769,11.752,20.183,10.022,17.417,10.022L17.417,10.022z"/></g><g><path fill="#852759" d="M25.391 51.23H37.756V63.595H25.391z" transform="rotate(-19.178 31.566 57.405)"/><path fill="#551537" d="M35.074,50.179l3.733,10.735l-10.735,3.733L24.34,53.912L35.074,50.179 M35.69,48.906l-12.624,4.39 l4.39,12.624l12.624-4.39L35.69,48.906L35.69,48.906z"/></g><g><path fill="#3ba08d" d="M16.405 25.391H28.770000000000003V37.756H16.405z" transform="rotate(-19.178 22.585 31.572)"/><path fill="#318575" d="M26.088,24.34l3.733,10.735l-10.735,3.733l-3.733-10.735L26.088,24.34 M26.704,23.067l-12.624,4.39 l4.39,12.624l12.624-4.39L26.704,23.067L26.704,23.067z"/></g></svg>