<svg xmlns="http://www.w3.org/2000/svg" xmlns:xlink="http://www.w3.org/1999/xlink" viewBox="0,0,255.99098,255.99098" width="250px" height="250px"><g fill="#ffffff" fill-rule="nonzero" stroke="none" stroke-width="1" stroke-linecap="butt" stroke-linejoin="miter" stroke-miterlimit="10" stroke-dasharray="" stroke-dashoffset="0" font-family="none" font-weight="none" font-size="none" text-anchor="none" style="mix-blend-mode: normal"><g transform="scale(5.12,5.12)"><path d="M9,4c-2.74952,0 -5,2.25048 -5,5v32c0,2.74952 2.25048,5 5,5h32c2.74952,0 5,-2.25048 5,-5v-32c0,-2.74952 -2.25048,-5 -5,-5zM9,6h32c1.66848,0 3,1.33152 3,3v32c0,1.66848 -1.33152,3 -3,3h-32c-1.66848,0 -3,-1.33152 -3,-3v-32c0,-1.66848 1.33152,-3 3,-3zM26.17383,11c-4.134,0 -4.17383,10.271 -4.17383,10.375c0,1.208 -0.00092,2 0.08008,3c-0.569,-0.197 -1.23013,-0.32227 -1.95312,-0.32227c-4.246,0 -6.12695,4.32414 -6.12695,7.99414c0,3.461 2.05539,6.95313 6.65039,6.95313c2.167,0 3.99966,-1.3408 5.47266,-3.3418c1.306,1.28 2.67327,1.32227 3.69727,1.32227c3.216,0 5.34533,-5.80272 6.11133,-8.13672c0.244,-0.747 -0.1878,-1.5433 -0.9668,-1.7793c-0.772,-0.232 -1.60952,0.17878 -1.85352,0.92578c-0.905,2.756 -1.85733,5.28977 -3.36133,6.00977c-0.525,0.251 -1.332,-0.076 -2.125,-1.125c1.843,-3.727 2.375,-8.254 2.375,-11.375c0,-8.726 -1.86417,-10.5 -3.82617,-10.5zM26.29102,14.04688c0.466,0.665 0.75391,2.68917 0.75391,7.45117c-0.001,2.528 -0.12069,5.52075 -1.05469,8.09375c-0.616,-2.001 -1.0332,-4.69975 -1.0332,-8.21875c0,-3.244 0.72499,-6.28517 1.33398,-7.32617zM20.125,27c1.259,0 2.22461,0.80855 2.22461,0.81055c0.072,0.072 0.15042,0.13445 0.23242,0.18945c0.413,1.973 1.0487,3.92673 1.7207,5.17773c-1.102,1.802 -2.40673,2.82227 -3.67773,2.82227c-3.335,0 -3.625,-2.638 -3.625,-3.875c0,-0.195 -0.061,-5.125 3.125,-5.125z"></path></g></g></svg>